<?xml version="1.0" encoding="UTF-8" standalone="no"?>
<!-- Created with Inkscape (http://www.inkscape.org/) -->

<svg
   xmlns:dc="http://purl.org/dc/elements/1.1/"
   xmlns:cc="http://creativecommons.org/ns#"
   xmlns:rdf="http://www.w3.org/1999/02/22-rdf-syntax-ns#"
   xmlns:svg="http://www.w3.org/2000/svg"
   xmlns="http://www.w3.org/2000/svg"
   xmlns:sodipodi="http://sodipodi.sourceforge.net/DTD/sodipodi-0.dtd"
   xmlns:inkscape="http://www.inkscape.org/namespaces/inkscape"
   id="svg2"
   version="1.1"
   inkscape:version="0.48.3.1 r9886"
   width="881.72382"
   height="594.00586"
   xml:space="preserve"
   sodipodi:docname="O3-T_correlation.svg"><metadata
     id="metadata8"><rdf:RDF><cc:Work
         rdf:about=""><dc:format>image/svg+xml</dc:format><dc:type
           rdf:resource="http://purl.org/dc/dcmitype/StillImage" /><dc:title /></cc:Work></rdf:RDF></metadata><defs
     id="defs6" /><sodipodi:namedview
     pagecolor="#ffffff"
     bordercolor="#666666"
     borderopacity="1"
     objecttolerance="10"
     gridtolerance="10"
     guidetolerance="10"
     inkscape:pageopacity="0"
     inkscape:pageshadow="2"
     inkscape:window-width="1920"
     inkscape:window-height="1023"
     id="namedview4"
     showgrid="true"
     inkscape:zoom="4.2677822"
     inkscape:cx="441.83813"
     inkscape:cy="362.07213"
     inkscape:window-x="0"
     inkscape:window-y="27"
     inkscape:window-maximized="1"
     inkscape:current-layer="g10"
     fit-margin-top="0"
     fit-margin-left="0"
     fit-margin-right="0"
     fit-margin-bottom="0"><inkscape:grid
       type="xygrid"
       id="grid3656"
       empspacing="5"
       visible="true"
       enabled="true"
       snapvisiblegridlinesonly="true"
       originx="-13.337383px"
       originy="-13.492253px" /></sodipodi:namedview><g
     id="g10"
     inkscape:groupmode="layer"
     inkscape:label="O3-T_correlation"
     transform="matrix(1.25,0,0,-1.25,-13.337383,607.49806)"><text
   id="text16"
   transform="scale(1,-1)"
   x="134.70703"
   y="-479.21875"><tspan
     id="tspan18"
     sodipodi:role="line"
     y="-479.21875"
     x="134.70703 140.38933 145.56013 153.82784 159.51013 164.68092 168.29863 173.46944 176.56633 182.24863 185.86633 191.03712 193.62253 200.33713 205.50793 211.19023 216.36102 222.04333 227.69772 232.86853 238.55083"
     style="font-size:9.30000019px;font-variant:normal;font-weight:bold;writing-mode:lr-tb;fill:#000000;fill-opacity:1;fill-rule:nonzero;stroke:none;font-family:Nimbus Sans L;-inkscape-font-specification:NimbusSanL-Bold">Temperature Dependent</tspan><tspan
     id="tspan20"
     sodipodi:role="line"
     y="-469.71484"
     x="144.25391 146.83931 152.0101 157.69241 163.37471 166.9924 172.16321 177.8455 183.01631 185.6017 191.80481 200.07251 202.6579 207.8287 212.99951 215.5849 221.26721 226.94951"
     style="font-size:9.30000019px;font-variant:normal;font-weight:bold;writing-mode:lr-tb;fill:#000000;fill-opacity:1;fill-rule:nonzero;stroke:none;font-family:Nimbus Sans L;-inkscape-font-specification:NimbusSanL-Bold">Isoprene Emissions</tspan><tspan
     id="tspan22"
     sodipodi:role="line"
     y="-479.21875"
     x="441.17578 446.85809 452.02887 460.29657 465.97888 471.14969 474.7674 479.93817 483.0351 488.71738 492.33508 497.50589 500.09128 502.67667 508.35898 514.04126 519.21204 524.89435 530.03729 535.71954 541.40186 546.57269 552.25494"
     style="font-size:9.30000019px;font-variant:normal;font-weight:bold;writing-mode:lr-tb;fill:#000000;fill-opacity:1;fill-rule:nonzero;stroke:none;font-family:Nimbus Sans L;-inkscape-font-specification:NimbusSanL-Bold">Temperature Independent</tspan><tspan
     id="tspan24"
     sodipodi:role="line"
     y="-469.71484"
     x="454.33984 456.92526 462.09604 467.77835 473.46063 477.07834 482.24915 487.93146 493.10223 495.68765 501.89075 510.15845 512.74384 517.91461 523.08545 525.67084 531.35315 537.03546"
     style="font-size:9.30000019px;font-variant:normal;font-weight:bold;writing-mode:lr-tb;fill:#000000;fill-opacity:1;fill-rule:nonzero;stroke:none;font-family:Nimbus Sans L;-inkscape-font-specification:NimbusSanL-Bold">Isoprene Emissions</tspan></text>


<path
   inkscape:connector-curvature="0"
   id="path26"
   style="fill:none;stroke:#6c254f;stroke-width:2.83464599;stroke-linecap:butt;stroke-linejoin:round;stroke-miterlimit:10;stroke-opacity:1;stroke-dasharray:none"
   d="m 40.215,344.312 5.918,0.063 5.918,0.531 5.918,0.071 5.918,0.546 5.922,0.086 5.918,0.567 5.918,0.101 5.917,0.106 5.918,0.601 5.918,0.121 5.918,0.629 5.918,0.141 5.918,0.656 5.918,0.668 5.918,0.184 5.918,0.703 5.918,0.211 5.922,0.742 5.918,0.766 5.918,0.257 5.918,0.805 5.918,0.285 5.918,0.844 5.918,0.867 5.918,0.887 5.918,0.355 5.918,0.93 5.918,0.949 5.918,0.973 5.922,0.996 5.918,1.016 5.918,0.457 5.918,1.058 5.918,1.075 5.917,1.101 5.918,1.117 5.918,1.145 5.918,1.766 5.918,1.187 5.918,1.207 5.918,1.23 5.918,1.868 5.922,1.281 5.918,1.301 5.918,1.945 5.918,1.355 5.918,2.004 5.918,2.032 5.918,2.058 5.918,2.094" /><path
   inkscape:connector-curvature="0"
   id="path28"
   style="fill:none;stroke:#ef6638;stroke-width:2.83464599;stroke-linecap:butt;stroke-linejoin:round;stroke-miterlimit:10;stroke-opacity:1;stroke-dasharray:none"
   d="m 40.215,344.758 5.918,0.062 5.918,0.067 5.918,0.562 5.918,0.078 5.922,0.582 5.918,0.094 5.918,0.602 5.917,0.113 5.918,0.629 5.918,0.133 5.918,0.14 5.918,0.672 5.918,0.164 5.918,0.707 5.918,0.727 5.918,0.211 5.918,0.765 5.922,0.235 5.918,0.804 5.918,0.266 5.918,0.844 5.918,0.289 5.918,0.883 5.918,0.902 5.918,0.34 5.918,0.941 5.918,0.961 5.918,0.379 5.918,1 5.922,1.016 5.918,1.039 5.918,0.437 5.918,1.075 5.918,1.093 5.917,1.114 5.918,1.128 5.918,1.157 5.918,1.176 5.918,1.195 5.918,1.222 5.918,1.247 5.918,1.273 5.922,1.297 5.918,1.328 5.918,2.004 5.918,1.394 5.918,1.426 5.918,2.114 5.918,1.507 5.918,2.196" /><path
   inkscape:connector-curvature="0"
   id="path30"
   style="fill:none;stroke:#2b9eb3;stroke-width:2.83464599;stroke-linecap:butt;stroke-linejoin:round;stroke-miterlimit:10;stroke-opacity:1;stroke-dasharray:none"
   d="m 40.215,346.711 5.918,0.488 5.918,0.094 5.918,0.508 5.918,0.113 5.922,0.531 5.918,0.133 5.918,0.559 5.917,0.152 5.918,0.59 5.918,0.18 5.918,0.621 5.918,0.203 5.918,0.66 5.918,0.676 5.918,0.258 5.918,0.718 5.918,0.289 5.922,0.758 5.918,0.317 5.918,0.8 5.918,0.817 5.918,0.363 5.918,0.856 5.918,0.875 5.918,0.402 5.918,0.906 5.918,0.922 5.918,0.438 5.918,0.949 5.922,0.965 5.918,0.976 5.918,0.988 5.918,0.493 5.918,1.011 5.917,1.028 5.918,1.039 5.918,1.054 5.918,1.067 5.918,1.082 5.918,1.098 5.918,1.113 5.918,1.133 5.922,1.148 5.918,1.703 5.918,1.199 5.918,1.219 5.918,1.781 5.918,1.278 5.918,1.843 5.918,1.344" /><path
   inkscape:connector-curvature="0"
   id="path32"
   style="fill:none;stroke:#0e5c28;stroke-width:2.83464599;stroke-linecap:butt;stroke-linejoin:round;stroke-miterlimit:10;stroke-opacity:1;stroke-dasharray:none"
   d="m 40.215,349.598 5.918,0.097 5.918,0.532 5.918,0.117 5.918,0.562 5.922,0.141 5.918,0.594 5.918,0.171 5.917,0.629 5.918,0.653 5.918,0.23 5.918,0.699 5.918,0.727 5.918,0.293 5.918,0.781 5.918,0.809 5.918,0.363 5.918,0.863 5.922,0.895 5.918,0.437 5.918,0.95 5.918,0.984 5.918,1.016 5.918,0.531 5.918,1.07 5.918,1.102 5.918,1.129 5.918,1.156 5.918,1.183 5.918,0.665 5.922,1.234 5.918,1.254 5.918,1.281 5.918,1.305 5.918,1.324 5.917,1.344 5.918,1.367 5.918,1.391 5.918,1.406 5.918,2.015 5.918,1.45 5.918,1.468 5.918,1.493 5.922,2.109 5.918,1.535 5.918,2.164 5.918,1.586 5.918,2.215 5.918,1.641 5.918,2.281 5.918,2.312" /><path
   inkscape:connector-curvature="0"
   id="path34"
   style="fill:none;stroke:#f9c500;stroke-width:2.83464599;stroke-linecap:butt;stroke-linejoin:round;stroke-miterlimit:10;stroke-opacity:1;stroke-dasharray:none"
   d="m 40.215,346.629 5.918,0.137 5.918,0.586 5.918,0.164 5.918,0.621 5.922,0.191 5.918,0.66 5.918,0.223 5.917,0.699 5.918,0.258 5.918,0.75 5.918,0.297 5.918,0.797 5.918,0.824 5.918,0.355 5.918,0.875 5.918,0.395 5.918,0.922 5.922,0.945 5.918,0.457 5.918,0.992 5.918,1.016 5.918,0.508 5.918,1.058 5.918,1.079 5.918,0.558 5.918,1.117 5.918,1.133 5.918,0.598 5.918,1.168 5.922,1.179 5.918,1.2 5.918,1.211 5.918,0.648 5.918,1.238 5.917,1.246 5.918,1.262 5.918,1.27 5.918,1.285 5.918,1.297 5.918,1.312 5.918,1.328 5.918,1.34 5.922,1.36 5.918,1.96 5.918,1.395 5.918,1.422 5.918,1.441 5.918,2.055 5.918,1.496 5.918,2.109" /><text
   id="text38"
   transform="scale(1,-1)"
   x="56"
   y="-400"><tspan
     id="tspan40"
     sodipodi:role="line"
     y="-400"
     x="56 66.757812 77.515594 81.657806 89.107788"
     style="font-size:14.89999962px;font-variant:normal;writing-mode:lr-tb;fill:#ef6638;fill-opacity:1;fill-rule:nonzero;stroke:none;font-family:Nimbus Sans L;-inkscape-font-specification:NimbusSanL-Regu">CRIv2</tspan></text>


<text
   id="text42"
   transform="scale(1,-1)"
   x="56"
   y="-384"><tspan
     id="tspan44"
     sodipodi:role="line"
     y="-384"
     x="56 68.411713 80.003906 89.107788 99.046112 109.80389 118.90781 123.86951"
     style="font-size:14.89999962px;font-variant:normal;writing-mode:lr-tb;fill:#2b9eb3;fill-opacity:1;fill-rule:nonzero;stroke:none;font-family:Nimbus Sans L;-inkscape-font-specification:NimbusSanL-Regu">MOZART-4</tspan></text>


<text
   id="text46"
   transform="scale(1,-1)"
   x="56"
   y="-416"><tspan
     id="tspan48"
     sodipodi:role="line"
     y="-416"
     x="56 68.411713 79.169495 91.581207 99.031189 107.31561 111.45779"
     style="font-size:14.89999962px;font-variant:normal;writing-mode:lr-tb;fill:#6c254f;fill-opacity:1;fill-rule:nonzero;stroke:none;font-family:Nimbus Sans L;-inkscape-font-specification:NimbusSanL-Regu">MCMv3.2</tspan></text>


<text
   id="text50"
   transform="scale(1,-1)"
   x="56"
   y="-432"><tspan
     id="tspan52"
     sodipodi:role="line"
     y="-432"
     x="56 66.757812 76.696106 87.453888 99.865601"
     style="font-size:14.89999962px;font-variant:normal;writing-mode:lr-tb;fill:#f9c500;fill-opacity:1;fill-rule:nonzero;stroke:none;font-family:Nimbus Sans L;-inkscape-font-specification:NimbusSanL-Regu">RADM2</tspan></text>


<text
   id="text54"
   transform="scale(1,-1)"
   x="56"
   y="-448"><tspan
     id="tspan56"
     sodipodi:role="line"
     y="-448"
     x="56 66.757812 76.696106 84.980499"
     style="font-size:14.89999962px;font-variant:normal;writing-mode:lr-tb;fill:#0e5c28;fill-opacity:1;fill-rule:nonzero;stroke:none;font-family:Nimbus Sans L;-inkscape-font-specification:NimbusSanL-Regu">CB05</tspan></text>


<path
   inkscape:connector-curvature="0"
   id="path58"
   style="fill:none;stroke:#6c254f;stroke-width:2.83464599;stroke-linecap:butt;stroke-linejoin:round;stroke-miterlimit:10;stroke-opacity:1;stroke-dasharray:none"
   d="m 40.215,209.266 5.918,0.519 5.918,0.574 5.918,0.559 5.918,0.609 5.922,0.59 5.918,0.649 5.918,0.625 5.917,0.406 5.918,0.949 5.918,0.688 5.918,0.754 5.918,0.734 5.918,1.047 5.918,0.847 5.918,0.844 5.918,1.16 5.918,0.903 5.922,0.98 5.918,1.258 5.918,1 5.918,1.332 5.918,1.07 5.918,1.403 5.918,1.437 5.918,1.477 5.918,1.218 5.918,1.555 5.918,1.594 5.918,1.633 5.922,1.675 5.918,1.711 5.918,1.446 5.918,2.054 5.918,1.836 5.917,1.875 5.918,2.176 5.918,1.961 5.918,2.574 5.918,2.051 5.918,2.356 5.918,2.398 5.918,2.504 5.922,2.5 5.918,2.555 5.918,2.914 5.918,2.664 5.918,3.031 5.918,3.34 5.918,3.156 5.918,3.469" /><path
   inkscape:connector-curvature="0"
   id="path60"
   style="fill:none;stroke:#ef6638;stroke-width:2.83464599;stroke-linecap:butt;stroke-linejoin:round;stroke-miterlimit:10;stroke-opacity:1;stroke-dasharray:none"
   d="m 40.215,210.168 5.918,0.293 5.918,0.574 5.918,0.629 5.918,0.606 5.922,0.664 5.918,0.64 5.918,0.969 5.917,0.418 5.918,1.016 5.918,0.457 5.918,0.757 5.918,1.114 5.918,0.543 5.918,1.179 5.918,1.2 5.918,0.628 5.918,1.262 5.922,0.965 5.918,1.32 5.918,0.735 5.918,1.383 5.918,1.078 5.918,1.441 5.918,1.469 5.918,1.164 5.918,1.242 5.918,1.559 5.918,1.246 5.918,1.617 5.922,1.644 5.918,1.672 5.918,1.36 5.918,1.734 5.918,2.051 5.917,1.793 5.918,1.828 5.918,1.863 5.918,2.18 5.918,1.937 5.918,1.981 5.918,2.305 5.918,2.07 5.922,2.402 5.918,2.453 5.918,2.563 5.918,2.574 5.918,2.641 5.918,3.027 5.918,2.789 5.918,3.188" /><path
   inkscape:connector-curvature="0"
   id="path62"
   style="fill:none;stroke:#2b9eb3;stroke-width:2.83464599;stroke-linecap:butt;stroke-linejoin:round;stroke-miterlimit:10;stroke-opacity:1;stroke-dasharray:none"
   d="m 40.215,210.852 5.918,0.707 5.918,0.367 5.918,0.754 5.918,0.57 5.922,0.625 5.918,0.613 5.918,0.672 5.917,0.656 5.918,0.891 5.918,0.531 5.918,0.946 5.918,0.773 5.918,1.027 5.918,0.879 5.918,0.871 5.918,1.114 5.918,0.925 5.922,0.997 5.918,0.98 5.918,1.234 5.918,1.262 5.918,1.066 5.918,1.317 5.918,1.344 5.918,0.957 5.918,1.394 5.918,1.418 5.918,1.211 5.918,1.461 5.922,1.488 5.918,1.504 5.918,1.532 5.918,1.503 5.918,1.571 5.917,1.593 5.918,1.622 5.918,1.644 5.918,1.856 5.918,1.699 5.918,1.918 5.918,1.765 5.918,1.985 5.922,1.844 5.918,2.3 5.918,1.938 5.918,2.172 5.918,2.457 5.918,2.289 5.918,2.578 5.918,2.43" /><path
   inkscape:connector-curvature="0"
   id="path64"
   style="fill:none;stroke:#0e5c28;stroke-width:2.83464599;stroke-linecap:butt;stroke-linejoin:round;stroke-miterlimit:10;stroke-opacity:1;stroke-dasharray:none"
   d="m 40.215,216.863 5.918,0.426 5.918,0.809 5.918,0.636 5.918,0.696 5.922,0.691 5.918,0.922 5.918,0.578 5.917,1.016 5.918,1.058 5.918,0.887 5.918,1.133 5.918,1.004 5.918,1.008 5.918,1.265 5.918,1.313 5.918,1.136 5.918,1.407 5.922,1.453 5.918,1.273 5.918,1.36 5.918,1.601 5.918,1.649 5.918,1.457 5.918,1.941 5.918,1.793 5.918,1.84 5.918,1.887 5.918,1.929 5.918,1.727 5.922,2.012 5.918,2.265 5.918,2.102 5.918,2.136 5.918,2.391 5.917,2.215 5.918,2.254 5.918,2.508 5.918,2.332 5.918,2.851 5.918,2.414 5.918,2.672 5.918,2.711 5.922,3.027 5.918,2.813 11.836,5.836 5.918,3.461 5.918,3.051 5.918,3.382 5.918,3.457" /><path
   inkscape:connector-curvature="0"
   id="path66"
   style="fill:none;stroke:#f9c500;stroke-width:2.83464599;stroke-linecap:butt;stroke-linejoin:round;stroke-miterlimit:10;stroke-opacity:1;stroke-dasharray:none"
   d="m 40.215,213.723 5.918,0.656 5.918,0.918 5.918,0.5 5.918,0.973 5.922,0.55 5.918,1.032 5.918,0.832 5.917,1.121 5.918,0.695 5.918,1.188 5.918,0.968 5.918,1.043 5.918,1.289 5.918,1.071 5.918,1.359 5.918,1.137 5.918,1.211 5.922,1.461 5.918,1.234 5.918,1.527 5.918,1.559 5.918,1.32 5.918,1.617 5.918,1.645 5.918,1.402 5.918,1.696 5.918,1.718 5.918,1.469 5.918,1.762 5.922,1.781 5.918,1.797 5.918,1.816 5.918,1.563 5.918,2.07 5.917,1.863 5.918,1.887 5.918,1.899 5.918,2.132 5.918,1.938 5.918,1.961 5.918,2.191 5.918,2.012 5.922,2.242 5.918,2.527 5.918,2.106 5.918,2.34 5.918,2.383 5.918,2.675 5.918,2.477 5.918,2.773" /><path
   inkscape:connector-curvature="0"
   id="path90"
   style="fill:none;stroke:#6c254f;stroke-width:2.83464599;stroke-linecap:butt;stroke-linejoin:round;stroke-miterlimit:10;stroke-opacity:1;stroke-dasharray:none"
   d="m 40.215,47.945 5.918,0.414 5.918,0.571 5.918,0.461 5.918,0.621 5.922,0.515 5.918,0.68 5.918,0.582 5.917,0.746 5.918,0.649 5.918,0.687 5.918,0.863 5.918,0.774 5.918,0.816 5.918,1.012 5.918,0.926 5.918,0.98 5.918,1.043 5.922,1.25 5.918,1.172 5.918,1.246 5.918,1.317 5.918,1.398 5.918,1.477 5.918,1.562 5.918,1.648 5.918,1.743 5.918,1.84 5.918,1.937 5.918,2.039 5.922,2.145 5.918,2.253 5.918,2.364 5.918,2.347 5.918,2.602 5.917,2.719 5.918,2.722 5.918,2.961 5.918,2.973 5.918,3.207 5.918,3.231 5.918,3.355 5.918,3.551 5.922,3.582 5.918,3.691 5.918,3.793 5.918,3.883 5.918,3.965 5.918,4.027 5.918,4.098 5.918,4.164" /><path
   inkscape:connector-curvature="0"
   id="path92"
   style="fill:none;stroke:#ef6638;stroke-width:2.83464599;stroke-linecap:butt;stroke-linejoin:round;stroke-miterlimit:10;stroke-opacity:1;stroke-dasharray:none"
   d="m 40.215,48.871 5.918,0.574 5.918,0.469 5.918,0.629 5.918,0.523 5.922,0.684 5.918,0.586 5.918,0.613 5.917,0.789 5.918,0.688 5.918,0.867 5.918,0.773 5.918,0.817 5.918,1.008 5.918,0.914 5.918,0.968 5.918,1.168 5.918,1.082 5.922,1.141 5.918,1.203 5.918,1.418 5.918,1.336 5.918,1.406 5.918,1.481 5.918,1.554 5.918,1.629 5.918,1.848 5.918,1.789 5.918,1.867 5.918,1.957 5.922,2.043 5.918,2.129 5.918,2.219 5.918,2.316 5.918,2.293 5.917,2.516 5.918,2.609 11.836,5.43 5.918,2.918 5.918,3.02 5.918,3.05 5.918,3.227 5.922,3.269 5.918,3.379 5.918,3.52 5.918,3.574 5.918,3.676 5.918,3.765 5.918,3.852 5.918,3.934" /><path
   inkscape:connector-curvature="0"
   id="path94"
   style="fill:none;stroke:#2b9eb3;stroke-width:2.83464599;stroke-linecap:butt;stroke-linejoin:round;stroke-miterlimit:10;stroke-opacity:1;stroke-dasharray:none"
   d="m 40.215,45.32 5.918,0.368 5.918,0.554 5.918,0.41 5.918,0.438 5.922,0.633 5.918,0.492 5.918,0.695 5.917,0.555 5.918,0.586 5.918,0.804 5.918,0.661 5.918,0.703 5.918,0.746 5.918,0.984 5.918,0.844 5.918,0.891 5.918,0.945 5.922,1.199 5.918,1.063 5.918,1.121 5.918,1.183 5.918,1.25 5.918,1.317 5.918,1.386 5.918,1.668 5.918,1.536 5.918,1.613 5.918,1.691 5.918,1.77 5.922,1.851 5.918,1.938 5.918,2.023 5.918,1.918 5.918,2.207 5.917,2.301 5.918,2.398 5.918,2.493 5.918,2.418 5.918,2.699 5.918,2.64 5.918,2.911 5.918,2.863 5.922,3.109 5.918,3.082 5.918,3.305 5.918,3.289 5.918,3.387 5.918,3.476 5.918,3.555 5.918,3.633" /><path
   style="fill:none;stroke:#2b9eb3;stroke-width:1.60000002;stroke-linecap:butt;stroke-linejoin:miter;stroke-opacity:1"
   d="m 100,49.6 236,0"
   id="path3674-3"
   inkscape:connector-curvature="0" /><path
   inkscape:connector-curvature="0"
   id="path96"
   style="fill:none;stroke:#0e5c28;stroke-width:2.83464599;stroke-linecap:butt;stroke-linejoin:round;stroke-miterlimit:10;stroke-opacity:1;stroke-dasharray:none"
   d="m 40.215,51.73 5.918,0.708 5.918,0.574 5.918,0.605 5.918,0.813 5.922,0.683 5.918,0.723 5.918,0.941 5.917,0.817 5.918,0.871 5.918,0.926 5.918,0.98 5.918,1.231 5.918,1.109 5.918,1.18 5.918,1.25 5.918,1.328 5.918,1.402 5.922,1.484 5.918,1.567 5.918,1.851 5.918,1.75 5.918,1.84 5.918,1.934 5.918,1.84 5.918,2.133 5.918,2.234 5.918,2.34 5.918,2.445 5.918,2.555 5.922,2.66 5.918,2.586 5.918,2.879 5.918,2.98 5.918,2.926 5.917,3.203 5.918,3.301 5.918,3.254 5.918,3.5 5.918,3.461 5.918,3.683 5.918,3.657 5.918,3.75 5.922,3.832 5.918,3.906 5.918,4.031 5.918,4.024 5.918,4.046 5.918,4.141 5.918,4.184 5.918,4.226" /><path
   inkscape:connector-curvature="0"
   id="path98"
   style="fill:none;stroke:#f9c500;stroke-width:2.83464599;stroke-linecap:butt;stroke-linejoin:round;stroke-miterlimit:10;stroke-opacity:1;stroke-dasharray:none"
   d="m 40.215,50.656 5.918,0.52 5.918,0.551 5.918,0.746 5.918,0.625 5.922,0.824 5.918,0.707 5.918,0.754 5.917,0.801 5.918,1.015 5.918,0.903 5.918,0.953 5.918,1.187 5.918,1.07 5.918,1.133 5.918,1.192 5.918,1.258 5.918,1.507 5.922,1.395 5.918,1.461 5.918,1.535 5.918,1.602 5.918,1.679 5.918,1.746 5.918,1.825 5.918,1.898 5.918,1.973 5.918,2.046 5.918,2.122 5.918,2.195 5.922,2.273 5.918,2.348 5.918,2.422 5.918,2.492 5.918,2.41 5.917,2.645 5.918,2.711 5.918,2.781 5.918,2.711 5.918,2.918 5.918,2.976 5.918,2.922 5.918,3.09 5.922,3.043 5.918,3.106 5.918,3.234 5.918,3.203 5.918,3.254 5.918,3.297 5.918,3.34 5.918,3.379" /><path
   inkscape:connector-curvature="0"
   id="path122"
   style="fill:none;stroke:#6c254f;stroke-width:2.83464599;stroke-linecap:butt;stroke-linejoin:round;stroke-miterlimit:10;stroke-opacity:1;stroke-dasharray:none"
   d="m 350.301,344.363 5.922,0.524 5.918,0.062 5.918,0.067 5.918,0.543 5.918,0.082 5.917,0.558 5.918,0.094 5.918,0.582 5.918,0.109 5.918,0.114 5.918,0.613 5.918,0.133 5.918,0.636 5.922,0.149 5.918,0.664 5.918,0.172 5.918,0.695 5.918,0.195 5.918,0.723 5.918,0.215 5.918,0.754 5.918,0.234 5.918,0.785 5.918,0.254 5.918,0.809 5.922,0.82 5.918,0.281 5.918,0.844 5.918,0.297 5.918,0.863 5.918,0.871 5.918,0.309 5.917,0.887 5.918,0.894 5.918,0.317 11.836,1.804 5.918,0.317 5.922,0.906 5.918,0.906 5.918,0.309 11.836,1.805 5.918,0.894 5.918,0.293 5.918,0.891 5.918,0.879 5.918,0.875 5.918,0.273 5.918,0.863" /><path
   inkscape:connector-curvature="0"
   id="path124"
   style="fill:none;stroke:#ef6638;stroke-width:2.83464599;stroke-linecap:butt;stroke-linejoin:round;stroke-miterlimit:10;stroke-opacity:1;stroke-dasharray:none"
   d="m 350.301,344.785 5.922,0.063 5.918,0.55 5.918,0.075 5.918,0.078 5.918,0.578 5.917,0.09 5.918,0.601 5.918,0.106 5.918,0.621 5.918,0.125 5.918,0.133 5.918,0.66 5.918,0.148 5.922,0.692 5.918,0.172 5.918,0.722 5.918,0.192 5.918,0.75 5.918,0.214 5.918,0.219 5.918,0.789 5.918,0.235 5.918,0.812 5.918,0.246 5.918,0.832 5.922,0.258 5.918,0.848 5.918,0.261 5.918,0.86 5.918,0.262 5.918,0.863 5.918,0.867 5.917,0.258 5.918,0.863 5.918,0.254 5.918,0.859 5.918,0.239 5.918,0.851 5.922,0.227 5.918,0.84 5.918,0.832 5.918,0.207 5.918,0.82 5.918,0.809 5.918,0.187 5.918,0.793 5.918,0.172 5.918,0.777 5.918,0.77 5.918,0.758" /><path
   inkscape:connector-curvature="0"
   id="path126"
   style="fill:none;stroke:#2b9eb3;stroke-width:2.83464599;stroke-linecap:butt;stroke-linejoin:round;stroke-miterlimit:10;stroke-opacity:1;stroke-dasharray:none"
   d="m 350.301,347.211 5.922,0.082 5.918,0.488 5.918,0.098 5.918,0.101 5.918,0.524 5.917,0.117 5.918,0.547 5.918,0.141 5.918,0.57 5.918,0.16 5.918,0.602 5.918,0.183 5.918,0.633 5.922,0.207 5.918,0.668 5.918,0.234 5.918,0.696 5.918,0.261 5.918,0.727 5.918,0.277 5.918,0.754 5.918,0.297 5.918,0.777 5.918,0.786 5.918,0.316 5.922,0.797 5.918,0.32 5.918,0.809 5.918,0.32 5.918,0.809 5.918,0.312 5.918,0.805 5.917,0.801 5.918,0.3 5.918,0.79 5.918,0.277 5.918,0.773 5.918,0.766 5.922,0.25 5.918,0.746 5.918,0.23 5.918,0.723 5.918,0.711 5.918,0.199 5.918,0.688 5.918,0.676 5.918,0.168 5.918,0.652 5.918,0.641 5.918,0.628" /><path
   inkscape:connector-curvature="0"
   id="path128"
   style="fill:none;stroke:#0e5c28;stroke-width:2.83464599;stroke-linecap:butt;stroke-linejoin:round;stroke-miterlimit:10;stroke-opacity:1;stroke-dasharray:none"
   d="m 350.301,349.656 5.922,0.094 5.918,0.527 5.918,0.114 5.918,0.554 5.918,0.137 5.917,0.586 5.918,0.602 5.918,0.183 5.918,0.641 5.918,0.218 5.918,0.684 5.918,0.254 5.918,0.734 5.922,0.758 5.918,0.317 5.918,0.808 5.918,0.352 5.918,0.855 5.918,0.883 5.918,0.414 5.918,0.93 5.918,0.953 5.918,0.465 5.918,0.996 5.918,1.015 5.922,0.512 5.918,1.051 5.918,1.066 5.918,0.543 5.918,1.09 5.918,1.102 5.918,0.558 11.835,2.235 5.918,1.121 5.918,0.558 5.918,1.122 5.918,1.117 5.922,1.113 5.918,0.531 5.918,1.102 5.918,1.09 5.918,1.078 5.918,0.488 5.918,1.059 5.918,1.043 5.918,1.031 5.918,1.015 5.918,1.004 5.918,0.407" /><path
   inkscape:connector-curvature="0"
   id="path130"
   style="fill:none;stroke:#f9c500;stroke-width:2.83464599;stroke-linecap:butt;stroke-linejoin:round;stroke-miterlimit:10;stroke-opacity:1;stroke-dasharray:none"
   d="m 350.301,346.684 5.922,0.132 5.918,0.582 5.918,0.161 5.918,0.613 5.918,0.187 5.917,0.653 5.918,0.215 5.918,0.691 5.918,0.25 5.918,0.738 5.918,0.285 5.918,0.786 5.918,0.32 5.922,0.828 5.918,0.852 5.918,0.375 5.918,0.894 5.918,0.406 5.918,0.934 5.918,0.43 5.918,0.972 5.918,0.985 5.918,0.468 5.918,1.012 5.918,0.485 5.922,1.031 5.918,1.043 5.918,0.496 5.918,1.051 5.918,0.492 11.836,2.109 5.917,0.485 5.918,1.043 5.918,1.039 5.918,0.464 5.918,1.02 5.918,1.016 5.922,1 5.918,0.421 5.918,0.977 5.918,0.965 5.918,0.953 5.918,0.371 5.918,0.922 5.918,0.91 5.918,0.895 5.918,0.879 5.918,0.863 5.918,0.297" /><path
   inkscape:connector-curvature="0"
   id="path154"
   style="fill:none;stroke:#6c254f;stroke-width:2.83464599;stroke-linecap:butt;stroke-linejoin:round;stroke-miterlimit:10;stroke-opacity:1;stroke-dasharray:none"
   d="m 350.301,209.715 5.922,0.543 5.918,0.289 5.918,0.539 5.918,0.594 5.918,0.566 5.917,0.621 5.918,0.598 5.918,0.89 5.918,0.399 5.918,0.648 5.918,0.711 5.918,0.688 5.918,0.746 5.922,0.742 5.918,1.059 5.918,0.547 5.918,1.109 5.918,0.836 5.918,0.906 5.918,0.879 5.918,1.199 5.918,0.922 5.918,0.992 5.918,0.961 5.918,1.285 5.922,1.297 5.918,0.762 5.918,1.336 5.918,1.047 5.918,1.363 5.918,1.375 5.918,1.078 5.917,1.137 5.918,1.402 5.918,1.098 11.836,2.82 5.918,1.102 5.922,1.41 5.918,1.406 5.918,1.094 5.918,1.394 5.918,1.387 5.918,1.379 5.918,1.063 5.918,1.359 5.918,1.344 5.918,1.332 5.918,1.015 5.918,1.309" /><path
   inkscape:connector-curvature="0"
   id="path156"
   style="fill:none;stroke:#ef6638;stroke-width:2.83464599;stroke-linecap:butt;stroke-linejoin:round;stroke-miterlimit:10;stroke-opacity:1;stroke-dasharray:none"
   d="m 350.301,210.336 5.922,0.551 5.918,0.601 5.918,0.574 5.918,0.325 5.918,0.914 5.917,0.355 5.918,0.949 5.918,0.391 5.918,0.988 5.918,0.422 5.918,0.723 5.918,1.066 5.918,0.5 5.922,1.114 5.918,0.539 5.918,1.156 5.918,0.855 5.918,0.914 5.918,0.891 5.918,0.613 5.918,1.254 5.918,0.93 5.918,0.988 5.918,0.953 5.918,1.297 5.922,0.965 5.918,1.024 5.918,0.972 5.918,1.313 5.918,0.683 5.918,1.317 5.918,1.304 5.917,0.961 5.918,1.008 5.918,0.945 5.918,1.274 5.918,0.93 5.918,1.25 5.922,0.617 5.918,1.226 5.918,1.211 5.918,0.863 5.918,1.18 5.918,1.164 5.918,0.824 5.918,0.864 5.918,0.793 5.918,1.105 5.918,1.09 5.918,1.07" /><path
   inkscape:connector-curvature="0"
   id="path158"
   style="fill:none;stroke:#2b9eb3;stroke-width:2.83464599;stroke-linecap:butt;stroke-linejoin:round;stroke-miterlimit:10;stroke-opacity:1;stroke-dasharray:none"
   d="m 350.301,211.484 5.922,0.332 5.918,0.707 5.918,0.368 5.918,0.543 5.918,0.601 5.917,0.578 5.918,0.805 5.918,0.449 5.918,0.844 5.918,0.488 5.918,0.891 5.918,0.715 5.918,0.785 5.922,0.769 5.918,1 5.918,0.633 5.918,1.047 5.918,0.848 5.918,0.906 5.918,0.879 5.918,1.117 5.918,0.906 5.918,0.961 5.918,1.149 5.918,0.933 5.922,1.16 5.918,0.762 5.918,1.164 5.918,0.938 5.918,1.156 5.918,0.926 5.918,0.961 5.917,1.133 5.918,0.894 5.918,1.102 5.918,0.867 5.918,0.894 5.918,1.055 5.922,0.816 5.918,1.02 5.918,0.777 5.918,0.981 5.918,0.961 5.918,0.554 5.918,0.926 5.918,0.906 5.918,0.672 5.918,0.871 5.918,0.852 5.918,0.836" /><path
   inkscape:connector-curvature="0"
   id="path160"
   style="fill:none;stroke:#0e5c28;stroke-width:2.83464599;stroke-linecap:butt;stroke-linejoin:round;stroke-miterlimit:10;stroke-opacity:1;stroke-dasharray:none"
   d="m 350.301,217.09 5.922,0.574 5.918,0.629 5.918,0.613 5.918,0.844 5.918,0.5 5.917,0.898 5.918,0.922 5.918,0.61 5.918,1.023 5.918,0.844 5.918,0.914 5.918,0.91 5.918,1.168 5.922,1.199 5.918,1.024 5.918,1.097 5.918,1.09 5.918,1.356 5.918,1.39 5.918,1.196 5.918,1.273 5.918,1.496 5.918,1.293 5.918,1.559 5.918,1.586 5.922,1.371 5.918,1.636 5.918,1.657 5.918,1.426 5.918,1.687 5.918,1.699 5.918,1.453 11.835,3.422 5.918,1.707 5.918,1.449 5.918,1.696 5.918,1.683 5.922,1.672 5.918,1.395 5.918,1.637 5.918,1.617 5.918,1.593 5.918,1.313 5.918,1.551 5.918,1.519 5.918,1.496 5.918,1.469 5.918,1.641 5.918,1.164" /><path
   inkscape:connector-curvature="0"
   id="path162"
   style="fill:none;stroke:#f9c500;stroke-width:2.83464599;stroke-linecap:butt;stroke-linejoin:round;stroke-miterlimit:10;stroke-opacity:1;stroke-dasharray:none"
   d="m 350.301,214.062 5.922,0.446 5.918,0.91 5.918,0.484 5.918,0.961 5.918,0.746 5.917,0.805 5.918,0.816 5.918,1.102 5.918,0.668 5.918,1.164 5.918,0.938 5.918,1.007 5.918,0.996 5.922,1.282 5.918,1.308 5.918,0.864 5.918,1.363 5.918,1.129 5.918,1.414 5.918,0.953 5.918,1.453 5.918,1.473 5.918,1.222 5.918,1.5 5.918,1.243 5.922,1.3 5.918,1.52 5.918,1.258 5.918,1.519 5.918,1.254 5.918,1.512 5.918,1.5 5.917,1.226 5.918,1.481 5.918,1.457 5.918,1.184 5.918,1.425 5.918,1.403 5.922,1.379 5.918,1.109 5.918,1.336 5.918,1.312 5.918,1.286 5.918,1.019 5.918,1.242 5.918,1.215 5.918,1.192 5.918,1.171 5.918,1.145 5.918,0.891" /><path
   inkscape:connector-curvature="0"
   id="path186"
   style="fill:none;stroke:#6c254f;stroke-width:2.83464599;stroke-linecap:butt;stroke-linejoin:round;stroke-miterlimit:10;stroke-opacity:1;stroke-dasharray:none"
   d="m 350.301,48.355 5.922,0.508 5.918,0.532 5.918,0.417 5.918,0.571 5.918,0.461 5.917,0.617 5.918,0.512 5.918,0.535 5.918,0.695 5.918,0.59 5.918,0.762 5.918,0.652 5.918,0.824 5.922,0.719 5.918,0.758 5.918,0.937 5.918,0.836 5.918,0.871 5.918,1.067 5.918,0.957 5.918,1 5.918,1.047 5.918,1.238 5.918,1.137 5.918,1.175 5.922,1.223 5.918,1.418 5.918,1.313 5.918,1.351 5.918,1.391 5.918,1.433 5.918,1.477 5.917,1.664 5.918,1.551 5.918,1.582 5.918,1.617 5.918,1.645 5.918,1.675 5.922,1.703 5.918,1.731 5.918,1.75 5.918,1.765 5.918,1.786 5.918,1.8 5.918,1.805 5.918,1.817 17.754,5.46 5.918,1.817" /><path
   inkscape:connector-curvature="0"
   id="path188"
   style="fill:none;stroke:#ef6638;stroke-width:2.83464599;stroke-linecap:butt;stroke-linejoin:round;stroke-miterlimit:10;stroke-opacity:1;stroke-dasharray:none"
   d="m 350.301,49.348 5.922,0.418 5.918,0.562 5.918,0.461 5.918,0.609 5.918,0.504 5.917,0.66 5.918,0.559 5.918,0.715 5.918,0.609 5.918,0.778 5.918,0.675 5.918,0.704 5.918,0.878 5.922,0.774 5.918,0.949 5.918,0.844 5.918,0.879 5.918,1.062 5.918,0.953 5.918,1.133 5.918,1.024 5.918,1.058 5.918,1.239 5.918,1.125 5.918,1.156 5.922,1.183 5.918,1.364 5.918,1.238 5.918,1.266 5.918,1.433 5.918,1.309 5.918,1.328 5.917,1.344 5.918,1.504 5.918,1.375 5.918,1.386 5.918,1.395 5.918,1.406 5.922,1.543 5.918,1.418 5.918,1.422 5.918,1.426 17.754,4.289 5.918,1.539 5.918,1.422 5.918,1.418 5.918,1.41 5.918,1.406" /><path
   inkscape:connector-curvature="0"
   id="path190"
   style="fill:none;stroke:#2b9eb3;stroke-width:2.83464599;stroke-linecap:butt;stroke-linejoin:round;stroke-miterlimit:10;stroke-opacity:1;stroke-dasharray:none"
   d="m 350.301,45.629 5.922,0.5 5.918,0.351 5.918,0.543 5.918,0.391 5.918,0.586 5.917,0.438 5.918,0.457 5.918,0.66 5.918,0.507 5.918,0.719 5.918,0.567 5.918,0.593 5.918,0.813 5.922,0.656 5.918,0.688 5.918,0.918 5.918,0.757 5.918,0.789 5.918,1.028 5.918,0.859 5.918,0.891 5.918,0.926 5.918,1.168 5.918,0.992 5.918,1.023 5.922,1.051 5.918,1.297 5.918,1.105 5.918,1.133 5.918,1.156 5.918,1.176 5.918,1.41 5.917,1.211 5.918,1.223 5.918,1.238 5.918,1.246 5.918,1.469 5.918,1.266 5.922,1.269 11.836,2.555 11.836,2.562 5.918,1.477 11.836,2.555 5.918,1.273 11.836,2.531 5.918,1.258" /><path
   inkscape:connector-curvature="0"
   id="path192"
   style="fill:none;stroke:#0e5c28;stroke-width:2.83464599;stroke-linecap:butt;stroke-linejoin:round;stroke-miterlimit:10;stroke-opacity:1;stroke-dasharray:none"
   d="m 350.301,52.207 5.922,0.512 5.918,0.703 5.918,0.566 5.918,0.602 5.918,0.805 5.917,0.667 5.918,0.704 5.918,0.925 5.918,0.793 5.918,0.836 5.918,1.067 5.918,0.937 5.918,0.985 5.922,1.039 5.918,1.093 5.918,1.344 5.918,1.211 5.918,1.27 5.918,1.324 5.918,1.387 5.918,1.644 5.918,1.512 5.918,1.566 5.918,1.629 5.918,1.684 5.922,1.738 5.918,1.793 5.918,1.848 5.918,1.894 5.918,1.945 5.918,1.989 5.918,2.031 5.917,2.062 5.918,2.098 5.918,2.129 5.918,2.149 5.918,2.171 5.918,2.184 5.922,2.199 5.918,2.203 5.918,2.207 5.918,2.2 5.918,2.191 5.918,2.18 5.918,2.164 5.918,2.14 5.918,2.118 5.918,2.085 5.918,1.938 5.918,2.027" /><path
   inkscape:connector-curvature="0"
   id="path194"
   style="fill:none;stroke:#f9c500;stroke-width:2.83464599;stroke-linecap:butt;stroke-linejoin:round;stroke-miterlimit:10;stroke-opacity:1;stroke-dasharray:none"
   d="m 350.301,50.883 5.922,0.644 5.918,0.528 5.918,0.711 5.918,0.589 5.918,0.625 5.917,0.825 5.918,0.707 5.918,0.742 5.918,0.957 5.918,0.828 5.918,0.875 5.918,1.098 5.918,0.972 5.922,1.02 5.918,1.066 5.918,1.301 5.918,1.168 5.918,1.215 5.918,1.266 5.918,1.503 5.918,1.36 5.918,1.406 5.918,1.449 5.918,1.492 5.918,1.532 5.922,1.761 5.918,1.606 5.918,1.637 5.918,1.664 5.918,1.695 5.918,1.715 5.918,1.738 5.917,1.758 5.918,1.769 5.918,1.786 5.918,1.793 5.918,1.8 5.918,1.805 5.922,1.805 5.918,1.804 5.918,1.797 5.918,1.789 5.918,1.782 5.918,1.765 5.918,1.754 5.918,1.735 5.918,1.718 5.918,1.692 5.918,1.668 5.918,1.644" /><path
   inkscape:connector-curvature="0"
   id="path218"
   style="fill:none;stroke:#000000;stroke-width:1.41732299;stroke-linecap:butt;stroke-linejoin:round;stroke-miterlimit:10;stroke-opacity:1;stroke-dasharray:none"
   d="m 40.215,333.285 0,132.828" /><text
   id="text220"
   transform="scale(1,-1)"
   x="22.789062"
   y="-349.40234"><tspan
     id="tspan222"
     sodipodi:role="line"
     y="-349.40234"
     x="22.789062 27.959862"
     style="font-size:9.30000019px;font-variant:normal;writing-mode:lr-tb;fill:#000000;fill-opacity:1;fill-rule:nonzero;stroke:none;font-family:Nimbus Sans L;-inkscape-font-specification:NimbusSanL-Regu">50</tspan><tspan
     id="tspan224"
     sodipodi:role="line"
     y="-385.32422"
     x="22.789062 27.959862"
     style="font-size:9.30000019px;font-variant:normal;writing-mode:lr-tb;fill:#000000;fill-opacity:1;fill-rule:nonzero;stroke:none;font-family:Nimbus Sans L;-inkscape-font-specification:NimbusSanL-Regu">60</tspan><tspan
     id="tspan226"
     sodipodi:role="line"
     y="-421.25"
     x="22.789062 27.959862"
     style="font-size:9.30000019px;font-variant:normal;writing-mode:lr-tb;fill:#000000;fill-opacity:1;fill-rule:nonzero;stroke:none;font-family:Nimbus Sans L;-inkscape-font-specification:NimbusSanL-Regu">70</tspan><tspan
     id="tspan228"
     sodipodi:role="line"
     y="-457.17188"
     x="22.789062 27.959862"
     style="font-size:9.30000019px;font-variant:normal;writing-mode:lr-tb;fill:#000000;fill-opacity:1;fill-rule:nonzero;stroke:none;font-family:Nimbus Sans L;-inkscape-font-specification:NimbusSanL-Regu">80</tspan></text>


<path
   inkscape:connector-curvature="0"
   id="path230"
   style="fill:none;stroke:#000000;stroke-width:1.41732299;stroke-linecap:butt;stroke-linejoin:round;stroke-miterlimit:10;stroke-opacity:1;stroke-dasharray:none"
   d="m 35.965,352.793 4.25,0" /><path
   inkscape:connector-curvature="0"
   id="path232"
   style="fill:none;stroke:#000000;stroke-width:1.41732299;stroke-linecap:butt;stroke-linejoin:round;stroke-miterlimit:10;stroke-opacity:1;stroke-dasharray:none"
   d="m 35.965,388.715 4.25,0" /><path
   inkscape:connector-curvature="0"
   id="path234"
   style="fill:none;stroke:#000000;stroke-width:1.41732299;stroke-linecap:butt;stroke-linejoin:round;stroke-miterlimit:10;stroke-opacity:1;stroke-dasharray:none"
   d="m 35.965,424.641 4.25,0" /><path
   inkscape:connector-curvature="0"
   id="path236"
   style="fill:none;stroke:#000000;stroke-width:1.41732299;stroke-linecap:butt;stroke-linejoin:round;stroke-miterlimit:10;stroke-opacity:1;stroke-dasharray:none"
   d="m 35.965,460.562 4.25,0" /><path
   inkscape:connector-curvature="0"
   id="path238"
   style="fill:none;stroke:#000000;stroke-width:1.41732299;stroke-linecap:butt;stroke-linejoin:round;stroke-miterlimit:10;stroke-opacity:1;stroke-dasharray:none"
   d="m 40.215,186.285 0,132.828" /><text
   id="text240"
   transform="scale(1,-1)"
   x="22.789062"
   y="-202.40234"><tspan
     id="tspan242"
     sodipodi:role="line"
     y="-202.40234"
     x="22.789062 27.959862"
     style="font-size:9.30000019px;font-variant:normal;writing-mode:lr-tb;fill:#000000;fill-opacity:1;fill-rule:nonzero;stroke:none;font-family:Nimbus Sans L;-inkscape-font-specification:NimbusSanL-Regu">50</tspan><tspan
     id="tspan244"
     sodipodi:role="line"
     y="-238.32422"
     x="22.789062 27.959862"
     style="font-size:9.30000019px;font-variant:normal;writing-mode:lr-tb;fill:#000000;fill-opacity:1;fill-rule:nonzero;stroke:none;font-family:Nimbus Sans L;-inkscape-font-specification:NimbusSanL-Regu">60</tspan><tspan
     id="tspan246"
     sodipodi:role="line"
     y="-274.24609"
     x="22.789062 27.959862"
     style="font-size:9.30000019px;font-variant:normal;writing-mode:lr-tb;fill:#000000;fill-opacity:1;fill-rule:nonzero;stroke:none;font-family:Nimbus Sans L;-inkscape-font-specification:NimbusSanL-Regu">70</tspan><tspan
     id="tspan248"
     sodipodi:role="line"
     y="-310.17188"
     x="22.789062 27.959862"
     style="font-size:9.30000019px;font-variant:normal;writing-mode:lr-tb;fill:#000000;fill-opacity:1;fill-rule:nonzero;stroke:none;font-family:Nimbus Sans L;-inkscape-font-specification:NimbusSanL-Regu">80</tspan></text>


<path
   inkscape:connector-curvature="0"
   id="path250"
   style="fill:none;stroke:#000000;stroke-width:1.41732299;stroke-linecap:butt;stroke-linejoin:round;stroke-miterlimit:10;stroke-opacity:1;stroke-dasharray:none"
   d="m 35.965,205.793 4.25,0" /><path
   inkscape:connector-curvature="0"
   id="path252"
   style="fill:none;stroke:#000000;stroke-width:1.41732299;stroke-linecap:butt;stroke-linejoin:round;stroke-miterlimit:10;stroke-opacity:1;stroke-dasharray:none"
   d="m 35.965,241.715 4.25,0" /><path
   inkscape:connector-curvature="0"
   id="path254"
   style="fill:none;stroke:#000000;stroke-width:1.41732299;stroke-linecap:butt;stroke-linejoin:round;stroke-miterlimit:10;stroke-opacity:1;stroke-dasharray:none"
   d="m 35.965,277.637 4.25,0" /><path
   inkscape:connector-curvature="0"
   id="path256"
   style="fill:none;stroke:#000000;stroke-width:1.41732299;stroke-linecap:butt;stroke-linejoin:round;stroke-miterlimit:10;stroke-opacity:1;stroke-dasharray:none"
   d="m 35.965,313.562 4.25,0" /><path
   inkscape:connector-curvature="0"
   id="path258"
   style="fill:none;stroke:#000000;stroke-width:1.41732299;stroke-linecap:butt;stroke-linejoin:round;stroke-miterlimit:10;stroke-opacity:1;stroke-dasharray:none"
   d="m 40.215,39.285 0,132.828" /><text
   id="text260"
   transform="scale(1,-1)"
   x="22.789062"
   y="-55.398438"><tspan
     id="tspan262"
     sodipodi:role="line"
     y="-55.398438"
     x="22.789062 27.959862"
     style="font-size:9.30000019px;font-variant:normal;writing-mode:lr-tb;fill:#000000;fill-opacity:1;fill-rule:nonzero;stroke:none;font-family:Nimbus Sans L;-inkscape-font-specification:NimbusSanL-Regu">50</tspan><tspan
     id="tspan264"
     sodipodi:role="line"
     y="-91.324219"
     x="22.789062 27.959862"
     style="font-size:9.30000019px;font-variant:normal;writing-mode:lr-tb;fill:#000000;fill-opacity:1;fill-rule:nonzero;stroke:none;font-family:Nimbus Sans L;-inkscape-font-specification:NimbusSanL-Regu">60</tspan><tspan
     id="tspan266"
     sodipodi:role="line"
     y="-127.24609"
     x="22.789062 27.959862"
     style="font-size:9.30000019px;font-variant:normal;writing-mode:lr-tb;fill:#000000;fill-opacity:1;fill-rule:nonzero;stroke:none;font-family:Nimbus Sans L;-inkscape-font-specification:NimbusSanL-Regu">70</tspan><tspan
     id="tspan268"
     sodipodi:role="line"
     y="-163.16797"
     x="22.789062 27.959862"
     style="font-size:9.30000019px;font-variant:normal;writing-mode:lr-tb;fill:#000000;fill-opacity:1;fill-rule:nonzero;stroke:none;font-family:Nimbus Sans L;-inkscape-font-specification:NimbusSanL-Regu">80</tspan></text>


<path
   inkscape:connector-curvature="0"
   id="path270"
   style="fill:none;stroke:#000000;stroke-width:1.41732299;stroke-linecap:butt;stroke-linejoin:round;stroke-miterlimit:10;stroke-opacity:1;stroke-dasharray:none"
   d="m 35.965,58.789 4.25,0" /><path
   inkscape:connector-curvature="0"
   id="path272"
   style="fill:none;stroke:#000000;stroke-width:1.41732299;stroke-linecap:butt;stroke-linejoin:round;stroke-miterlimit:10;stroke-opacity:1;stroke-dasharray:none"
   d="m 35.965,94.715 4.25,0" /><path
   inkscape:connector-curvature="0"
   id="path274"
   style="fill:none;stroke:#000000;stroke-width:1.41732299;stroke-linecap:butt;stroke-linejoin:round;stroke-miterlimit:10;stroke-opacity:1;stroke-dasharray:none"
   d="m 35.965,130.637 4.25,0" /><path
   inkscape:connector-curvature="0"
   id="path276"
   style="fill:none;stroke:#000000;stroke-width:1.41732299;stroke-linecap:butt;stroke-linejoin:round;stroke-miterlimit:10;stroke-opacity:1;stroke-dasharray:none"
   d="m 35.965,166.559 4.25,0" /><text
   id="text278"
   transform="scale(1,-1)"
   x="669.90759"
   y="-396.30859"><tspan
     id="tspan280"
     sodipodi:role="line"
     y="-396.30859"
     x="669.90759 675.5899 681.27222 688.50757 691.60449 698.31909 705.5545"
     style="font-size:9.30000019px;font-variant:normal;font-weight:bold;writing-mode:lr-tb;fill:#000000;fill-opacity:1;fill-rule:nonzero;stroke:none;font-family:Nimbus Sans L;-inkscape-font-specification:NimbusSanL-Bold">Low-NOx</tspan><tspan
     id="tspan282"
     sodipodi:role="line"
     y="-249.30859"
     x="664.22009 671.96698 677.13782 682.30859 684.89398 693.16168 698.33252 700.91791 704.01477 711.25018"
     style="font-size:9.30000019px;font-variant:normal;font-weight:bold;writing-mode:lr-tb;fill:#000000;fill-opacity:1;fill-rule:nonzero;stroke:none;font-family:Nimbus Sans L;-inkscape-font-specification:NimbusSanL-Bold">Maximal-O3</tspan><tspan
     id="tspan284"
     sodipodi:role="line"
     y="-102.30859"
     x="668.87634 675.59094 678.17633 683.85864 689.54095 692.63782 699.35242 706.58783"
     style="font-size:9.30000019px;font-variant:normal;font-weight:bold;writing-mode:lr-tb;fill:#000000;fill-opacity:1;fill-rule:nonzero;stroke:none;font-family:Nimbus Sans L;-inkscape-font-specification:NimbusSanL-Bold">High-NOx</tspan></text>


<path
   inkscape:connector-curvature="0"
   id="path286"
   style="fill:none;stroke:#000000;stroke-width:1.41732299;stroke-linecap:butt;stroke-linejoin:round;stroke-miterlimit:10;stroke-opacity:1;stroke-dasharray:none"
   d="m 40.215,39.285 295.914,0" /><path
   inkscape:connector-curvature="0"
   id="path288"
   style="fill:none;stroke:#000000;stroke-width:1.41732299;stroke-linecap:butt;stroke-linejoin:round;stroke-miterlimit:10;stroke-opacity:1;stroke-dasharray:none"
   d="m 40.215,35.031 0,4.254" /><path
   inkscape:connector-curvature="0"
   id="path290"
   style="fill:none;stroke:#000000;stroke-width:1.41732299;stroke-linecap:butt;stroke-linejoin:round;stroke-miterlimit:10;stroke-opacity:1;stroke-dasharray:none"
   d="m 99.398,35.031 0,4.254" /><path
   inkscape:connector-curvature="0"
   id="path292"
   style="fill:none;stroke:#000000;stroke-width:1.41732299;stroke-linecap:butt;stroke-linejoin:round;stroke-miterlimit:10;stroke-opacity:1;stroke-dasharray:none"
   d="m 158.582,35.031 0,4.254" /><path
   inkscape:connector-curvature="0"
   id="path294"
   style="fill:none;stroke:#000000;stroke-width:1.41732299;stroke-linecap:butt;stroke-linejoin:round;stroke-miterlimit:10;stroke-opacity:1;stroke-dasharray:none"
   d="m 217.766,35.031 0,4.254" /><path
   inkscape:connector-curvature="0"
   id="path296"
   style="fill:none;stroke:#000000;stroke-width:1.41732299;stroke-linecap:butt;stroke-linejoin:round;stroke-miterlimit:10;stroke-opacity:1;stroke-dasharray:none"
   d="m 276.945,35.031 0,4.254" /><path
   inkscape:connector-curvature="0"
   id="path298"
   style="fill:none;stroke:#000000;stroke-width:1.41732299;stroke-linecap:butt;stroke-linejoin:round;stroke-miterlimit:10;stroke-opacity:1;stroke-dasharray:none"
   d="m 336.129,35.031 0,4.254" /><text
   id="text300"
   transform="scale(1,-1)"
   x="35.046875"
   y="-25.414062"><tspan
     id="tspan302"
     sodipodi:role="line"
     y="-25.414062"
     x="35.046875 40.217674 94.232071 99.402878 153.41408 158.58487 212.59927 217.77007 271.77734 276.94815 330.96255 336.13336"
     style="font-size:9.30000019px;font-variant:normal;writing-mode:lr-tb;fill:#000000;fill-opacity:1;fill-rule:nonzero;stroke:none;font-family:Nimbus Sans L;-inkscape-font-specification:NimbusSanL-Regu">152025303540</tspan></text>


<path
   inkscape:connector-curvature="0"
   id="path304"
   style="fill:none;stroke:#000000;stroke-width:1.41732299;stroke-linecap:butt;stroke-linejoin:round;stroke-miterlimit:10;stroke-opacity:1;stroke-dasharray:none"
   d="m 350.301,39.285 295.914,0" /><path
   inkscape:connector-curvature="0"
   id="path306"
   style="fill:none;stroke:#000000;stroke-width:1.41732299;stroke-linecap:butt;stroke-linejoin:round;stroke-miterlimit:10;stroke-opacity:1;stroke-dasharray:none"
   d="m 350.301,35.031 0,4.254" /><path
   inkscape:connector-curvature="0"
   id="path308"
   style="fill:none;stroke:#000000;stroke-width:1.41732299;stroke-linecap:butt;stroke-linejoin:round;stroke-miterlimit:10;stroke-opacity:1;stroke-dasharray:none"
   d="m 409.484,35.031 0,4.254" /><path
   inkscape:connector-curvature="0"
   id="path310"
   style="fill:none;stroke:#000000;stroke-width:1.41732299;stroke-linecap:butt;stroke-linejoin:round;stroke-miterlimit:10;stroke-opacity:1;stroke-dasharray:none"
   d="m 468.668,35.031 0,4.254" /><path
   inkscape:connector-curvature="0"
   id="path312"
   style="fill:none;stroke:#000000;stroke-width:1.41732299;stroke-linecap:butt;stroke-linejoin:round;stroke-miterlimit:10;stroke-opacity:1;stroke-dasharray:none"
   d="m 527.852,35.031 0,4.254" /><path
   inkscape:connector-curvature="0"
   id="path314"
   style="fill:none;stroke:#000000;stroke-width:1.41732299;stroke-linecap:butt;stroke-linejoin:round;stroke-miterlimit:10;stroke-opacity:1;stroke-dasharray:none"
   d="m 587.035,35.031 0,4.254" /><path
   inkscape:connector-curvature="0"
   id="path316"
   style="fill:none;stroke:#000000;stroke-width:1.41732299;stroke-linecap:butt;stroke-linejoin:round;stroke-miterlimit:10;stroke-opacity:1;stroke-dasharray:none"
   d="m 646.215,35.031 0,4.254" /><text
   id="text318"
   transform="scale(1,-1)"
   x="345.13281"
   y="-25.414062"><tspan
     id="tspan320"
     sodipodi:role="line"
     y="-25.414062"
     x="345.13281 350.30362 404.31802 409.4888 463.5 468.67081 522.68518 527.85602 581.86719 587.03796 641.04309 646.21387"
     style="font-size:9.30000019px;font-variant:normal;writing-mode:lr-tb;fill:#000000;fill-opacity:1;fill-rule:nonzero;stroke:none;font-family:Nimbus Sans L;-inkscape-font-specification:NimbusSanL-Regu">152025303540</tspan></text>


<text
   id="text322"
   transform="scale(1,-1)"
   x="296.50781"
   y="-13.300781"><tspan
     id="tspan324"
     sodipodi:role="line"
     y="-13.300781"
     x="296.50781 303.5343 309.92831 320.15179 327.17831 333.5723 338.04581 344.43982 348.26932 355.29581 359.76932 366.1633 369.36032"
     style="font-size:11.5px;font-variant:normal;font-weight:bold;writing-mode:lr-tb;fill:#000000;fill-opacity:1;fill-rule:nonzero;stroke:none;font-family:Nimbus Sans L;-inkscape-font-specification:NimbusSanL-Bold">Temperature (</tspan></text>


<text
   id="text326"
   transform="scale(1,-1)"
   x="373.18982"
   y="-13.300781"><tspan
     id="tspan328"
     y="-13.300781"
     x="373.18982"
     style="font-size:11.5px;font-variant:normal;font-weight:normal;writing-mode:lr-tb;fill:#000000;fill-opacity:1;fill-rule:nonzero;stroke:none;font-family:Symbol;-inkscape-font-specification:Symbol">°</tspan></text>


<text
   id="text330"
   transform="scale(1,-1)"
   x="377.78979"
   y="-13.300781"><tspan
     id="tspan332"
     sodipodi:role="line"
     y="-13.300781"
     x="377.78979 386.0928"
     style="font-size:11.5px;font-variant:normal;font-weight:bold;writing-mode:lr-tb;fill:#000000;fill-opacity:1;fill-rule:nonzero;stroke:none;font-family:Nimbus Sans L;-inkscape-font-specification:NimbusSanL-Bold">C)</tspan></text>


<text
   id="text334"
   transform="matrix(0,1,1,0,0,0)"
   x="225.86328"
   y="19.191406"><tspan
     id="tspan336"
     sodipodi:role="line"
     y="19.191406"
     x="225.86328 234.81027 241.20428 244.40128 248.23077 255.25728 262.28378 269.31027 275.70428"
     style="font-size:11.5px;font-variant:normal;font-weight:bold;writing-mode:lr-tb;fill:#000000;fill-opacity:1;fill-rule:nonzero;stroke:none;font-family:Nimbus Sans L;-inkscape-font-specification:NimbusSanL-Bold">O<tspan
   style="font-size:10.39999962px;baseline-shift:sub"
   id="tspan4526">3</tspan> (ppbv)</tspan></text>


<path
   style="fill:none;stroke:#2b9eb3;stroke-width:1.60657942;stroke-linecap:butt;stroke-linejoin:miter;stroke-opacity:1"
   d="m 408,49.6 237.94492,0"
   id="path3674"
   inkscape:connector-curvature="0" /><path
   style="fill:none;stroke:#2b9eb3;stroke-width:1.60000002;stroke-linecap:butt;stroke-linejoin:miter;stroke-opacity:1"
   d="m 645.6,92 0,-41.6"
   id="path3694"
   inkscape:connector-curvature="0" /><path
   style="fill:none;stroke:#2b9eb3;stroke-width:1.60000002;stroke-linecap:butt;stroke-linejoin:miter;stroke-opacity:1"
   d="m 336,91.2 0,-41.6"
   id="path3694-0"
   inkscape:connector-curvature="0" /><text
   xml:space="preserve"
   style="font-size:16px;font-style:normal;font-variant:normal;font-weight:bold;font-stretch:normal;line-height:125%;letter-spacing:0px;word-spacing:0px;fill:#2b9eb3;fill-opacity:1;stroke:none;font-family:Nimbus Sans L;-inkscape-font-specification:Sans Bold"
   x="647.0611"
   y="-67.8592"
   id="text3732"
   sodipodi:linespacing="125%"
   transform="scale(1,-1)"><tspan
     sodipodi:role="line"
     id="tspan3734"
     x="647.0611"
     y="-67.8592"
     style="font-size:12.80000019px;fill:#2b9eb3;fill-opacity:1">Chemistry</tspan></text>


<path
   style="fill:none;stroke:#2b9eb3;stroke-width:2;stroke-linecap:butt;stroke-linejoin:miter;stroke-miterlimit:4;stroke-opacity:1;stroke-dasharray:2, 4;stroke-dashoffset:0"
   d="m 420,470 0,45"
   id="path3736"
   inkscape:connector-curvature="0"
   transform="matrix(0.8,0,0,-0.8,0,504)" /><text
   xml:space="preserve"
   style="font-size:16px;font-style:normal;font-variant:normal;font-weight:bold;font-stretch:normal;line-height:125%;letter-spacing:0px;word-spacing:0px;fill:#2b9eb3;fill-opacity:1;stroke:none;font-family:Nimbus Sans L;-inkscape-font-specification:Sans Bold"
   x="338.79764"
   y="-105.4816"
   id="text4506"
   sodipodi:linespacing="125%"
   transform="scale(1,-1)"><tspan
     sodipodi:role="line"
     id="tspan4508"
     x="338.79764"
     y="-105.4816"
     style="font-size:12.80000019px;fill:#2b9eb3;fill-opacity:1">Emissions</tspan></text>


<path
   style="fill:none;stroke:#0e5c28;stroke-width:6.4000001;stroke-linecap:butt;stroke-linejoin:miter;stroke-miterlimit:4;stroke-opacity:1;stroke-dasharray:none"
   d="m 341.6,309.59996 0,-21.6"
   id="path4510"
   inkscape:connector-curvature="0" /><path
   style="fill:none;stroke:#f9c500;stroke-width:6.4000001;stroke-linecap:butt;stroke-linejoin:miter;stroke-miterlimit:4;stroke-opacity:1;stroke-dasharray:none"
   d="m 348.8,293.59996 0,-5.6"
   id="path4512"
   inkscape:connector-curvature="0" /><path
   style="fill:none;stroke:#ef6638;stroke-width:6.4000001;stroke-linecap:butt;stroke-linejoin:miter;stroke-miterlimit:4;stroke-opacity:1;stroke-dasharray:none"
   d="m 356,287.99996 0,-3.2"
   id="path4514"
   inkscape:connector-curvature="0" /><path
   style="fill:none;stroke:#2b9eb3;stroke-width:6.4000001;stroke-linecap:butt;stroke-linejoin:miter;stroke-miterlimit:4;stroke-opacity:1;stroke-dasharray:none"
   d="m 363.2,287.99996 0,-9.6"
   id="path4516"
   inkscape:connector-curvature="0" /><text
   xml:space="preserve"
   style="font-size:16px;font-style:normal;font-variant:normal;font-weight:bold;font-stretch:normal;line-height:125%;letter-spacing:0px;word-spacing:0px;fill:#000000;fill-opacity:1;stroke:none;font-family:Nimbus Sans L;-inkscape-font-specification:Sans Bold"
   x="348"
   y="-311.99997"
   id="text4518"
   sodipodi:linespacing="125%"
   transform="scale(1,-1)"><tspan
     sodipodi:role="line"
     id="tspan4520"
     x="348"
     y="-311.99997"
     style="font-size:12.80000019px">Difference</tspan><tspan
     sodipodi:role="line"
     x="348"
     y="-295.99997"
     id="tspan4522"
     style="font-size:12.80000019px">from <tspan
   style="fill:#6c254f;fill-opacity:1"
   id="tspan4524">MCMv3.2</tspan></tspan></text>


</g></svg>