<?xml version="1.0" encoding="UTF-8" standalone="no"?>
<!-- Created with Inkscape (http://www.inkscape.org/) -->

<svg
   xmlns:dc="http://purl.org/dc/elements/1.1/"
   xmlns:cc="http://creativecommons.org/ns#"
   xmlns:rdf="http://www.w3.org/1999/02/22-rdf-syntax-ns#"
   xmlns:svg="http://www.w3.org/2000/svg"
   xmlns="http://www.w3.org/2000/svg"
   xmlns:sodipodi="http://sodipodi.sourceforge.net/DTD/sodipodi-0.dtd"
   xmlns:inkscape="http://www.inkscape.org/namespaces/inkscape"
   id="svg2"
   version="1.1"
   inkscape:version="0.48.3.1 r9886"
   width="379.17789"
   height="22.893641"
   xml:space="preserve"
   sodipodi:docname="O3_comparison.svg"><metadata
     id="metadata8"><rdf:RDF><cc:Work
         rdf:about=""><dc:format>image/svg+xml</dc:format><dc:type
           rdf:resource="http://purl.org/dc/dcmitype/StillImage" /><dc:title></dc:title></cc:Work></rdf:RDF></metadata><defs
     id="defs6"><clipPath
       clipPathUnits="userSpaceOnUse"
       id="clipPath16"><path
         d="M 0,0 504,0 504,720 0,720 0,0 z"
         id="path18"
         inkscape:connector-curvature="0" /></clipPath></defs><sodipodi:namedview
     pagecolor="#ffffff"
     bordercolor="#666666"
     borderopacity="1"
     objecttolerance="10"
     gridtolerance="10"
     guidetolerance="10"
     inkscape:pageopacity="0"
     inkscape:pageshadow="2"
     inkscape:window-width="1920"
     inkscape:window-height="1023"
     id="namedview4"
     showgrid="false"
     inkscape:zoom="0.68111408"
     inkscape:cx="-212.10867"
     inkscape:cy="-336.8991"
     inkscape:window-x="0"
     inkscape:window-y="27"
     inkscape:window-maximized="1"
     inkscape:current-layer="g10"
     fit-margin-top="0"
     fit-margin-left="0"
     fit-margin-right="0"
     fit-margin-bottom="0" /><g
     id="g10"
     inkscape:groupmode="layer"
     inkscape:label="O3_comparison"
     transform="matrix(1.25,0,0,-1.25,-114.62076,878.80177)"><text
   transform="scale(1,-1)"
   id="text28"
   x="91.566406"
   y="-696.26172"><tspan
     style="font-size:9.30000019px;font-variant:normal;font-weight:bold;writing-mode:lr-tb;fill:#1a1a1a;fill-opacity:1;fill-rule:nonzero;stroke:none;font-family:Nimbus Sans L;-inkscape-font-specification:NimbusSanL-Bold"
     x="91.566406 97.248703 102.4195 110.6872 116.36951 121.54031 125.158 130.32881 133.4257 139.108 142.72571 147.8965 150.4819 153.06731 158.7496 164.4319 169.60271 175.285 180.4558 186.13811 191.8204 196.9912 202.67351 205.7704"
     y="-696.26172"
     sodipodi:role="line"
     id="tspan30">Temperature Independent </tspan><tspan
     style="font-size:9.30000019px;font-variant:normal;font-weight:bold;writing-mode:lr-tb;fill:#1a1a1a;fill-opacity:1;fill-rule:nonzero;stroke:none;font-family:Nimbus Sans L;-inkscape-font-specification:NimbusSanL-Bold"
     x="106.02343 108.60883 113.77963 119.46193 125.14423 128.76193 133.93272 139.61504 144.78583 147.37123 153.57433 161.84203 164.42743 169.59824 174.76903 177.35443 183.03673 188.71902"
     y="-686.75391"
     sodipodi:role="line"
     id="tspan32">Isoprene Emissions</tspan><tspan
     style="font-size:9.30000019px;font-variant:normal;font-weight:bold;writing-mode:lr-tb;fill:#1a1a1a;fill-opacity:1;fill-rule:nonzero;stroke:none;font-family:Nimbus Sans L;-inkscape-font-specification:NimbusSanL-Bold"
     x="288.07031 293.75259 298.9234 307.1911 312.87341 318.04419 321.6619 326.8327 329.9296 335.61191 339.22961 344.40039 346.98581 353.70041 358.87122 364.5535 369.7243 375.40662 381.0889 386.2597 391.94202 395.03891"
     y="-696.26172"
     sodipodi:role="line"
     id="tspan34">Temperature Dependent </tspan><tspan
     style="font-size:9.30000019px;font-variant:normal;font-weight:bold;writing-mode:lr-tb;fill:#1a1a1a;fill-opacity:1;fill-rule:nonzero;stroke:none;font-family:Nimbus Sans L;-inkscape-font-specification:NimbusSanL-Bold"
     x="298.91016 301.49554 306.66635 312.34866 318.03094 321.64865 326.81946 332.50174 337.67255 340.25793 346.46106 354.72876 357.31415 362.48495 367.65576 370.24115 375.92346 381.60574"
     y="-686.75391"
     sodipodi:role="line"
     id="tspan36">Isoprene Emissions</tspan></text>
















































































</g></svg>